<?xml version="1.0" encoding="UTF-8" standalone="no"?>
<!-- This is a Stata 18.0 generated SVG file (http://www.stata.com) -->

<svg version="1.1" width="7.500in" height="4.500in" viewBox="0 0 5400 3240" xmlns="http://www.w3.org/2000/svg" xmlns:xlink="http://www.w3.org/1999/xlink">
	<desc>Stata Graph - graph1</desc>
	<rect x="0" y="0" width="5400" height="3240" style="fill:#FFFFFF;stroke:none"/>
	<rect x="0.00" y="0.00" width="5400.00" height="3240.00" style="fill:#FFFFFF"/>
	<rect x="3.24" y="3.24" width="5393.52" height="3233.52" style="fill:none;stroke:#FFFFFF;stroke-width:6.48"/>
	<rect x="226.80" y="486.84" width="1775.42" height="2600.94" style="fill:#FFFFFF"/>
	<rect x="229.55" y="489.60" width="1769.91" height="2595.44" style="fill:none;stroke:#FFFFFF;stroke-width:5.51"/>
	<rect x="2229.02" y="486.84" width="1775.25" height="2600.94" style="fill:#FFFFFF"/>
	<rect x="2231.77" y="489.60" width="1769.74" height="2595.44" style="fill:none;stroke:#FFFFFF;stroke-width:5.51"/>
	<defs>
		<clipPath id="clipPath_eILIrbYV">
			<path d="M1114.43 1787.23 L1085.56 960.69 A827.04 827.04 0 1 0 1114.43 960.19 Z"/>
		</clipPath>
	</defs>
	<path d="M1114.43 1787.23 L1085.56 960.69 A827.04 827.04 0 1 0 1114.43 960.19 Z" style="stroke:none;fill:#3191FF"/>
	<path d="M1114.43 1787.23 L1085.56 960.69 A827.04 827.04 0 1 0 1114.43 960.19 Z" style="fill:none;stroke:#1A85FF;stroke-width:6.00" clip-path="url(#clipPath_eILIrbYV)"/>
	<defs>
		<clipPath id="clipPath_AgLGKNvf">
			<path d="M1114.43 1787.23 L1114.42 960.19 A827.04 827.04 0 0 0 1085.56 960.69 Z"/>
		</clipPath>
	</defs>
	<path d="M1114.43 1787.23 L1114.42 960.19 A827.04 827.04 0 0 0 1085.56 960.69 Z" style="stroke:none;fill:#D8296A"/>
	<path d="M1114.43 1787.23 L1114.42 960.19 A827.04 827.04 0 0 0 1085.56 960.69 Z" style="fill:none;stroke:#D41159;stroke-width:6.00" clip-path="url(#clipPath_AgLGKNvf)"/>
	<text x="1124.89" y="2375.38" style="font-family:'Helvetica';font-size:105.13px;fill:#000000" text-anchor="middle">333 (99.4%)</text>
	<text x="1104.13" y="1272.93" style="font-family:'Helvetica';font-size:105.13px;fill:#000000" text-anchor="middle">2 (.597%)</text>
	<defs>
		<clipPath id="clipPath_SuStKBwD">
			<path d="M3116.64 1787.23 L2325.74 2029.04 A827.04 827.04 0 1 0 3116.64 960.19 Z"/>
		</clipPath>
	</defs>
	<path d="M3116.64 1787.23 L2325.74 2029.04 A827.04 827.04 0 1 0 3116.64 960.19 Z" style="stroke:none;fill:#3191FF"/>
	<path d="M3116.64 1787.23 L2325.74 2029.04 A827.04 827.04 0 1 0 3116.64 960.19 Z" style="fill:none;stroke:#1A85FF;stroke-width:6.00" clip-path="url(#clipPath_SuStKBwD)"/>
	<defs>
		<clipPath id="clipPath_wMWBvBGY">
			<path d="M3116.64 1787.23 L2888.68 992.23 A827.04 827.04 0 0 0 2325.74 2029.04 Z"/>
		</clipPath>
	</defs>
	<path d="M3116.64 1787.23 L2888.68 992.23 A827.04 827.04 0 0 0 2325.74 2029.04 Z" style="stroke:none;fill:#D8296A"/>
	<path d="M3116.64 1787.23 L2888.68 992.23 A827.04 827.04 0 0 0 2325.74 2029.04 Z" style="fill:none;stroke:#D41159;stroke-width:6.00" clip-path="url(#clipPath_wMWBvBGY)"/>
	<defs>
		<clipPath id="clipPath_ynNGeSUv">
			<path d="M3116.64 1787.23 L3116.64 960.19 A827.04 827.04 0 0 0 2888.68 992.23 Z"/>
		</clipPath>
	</defs>
	<path d="M3116.64 1787.23 L3116.64 960.19 A827.04 827.04 0 0 0 2888.68 992.23 Z" style="stroke:none;fill:#19C58C"/>
	<path d="M3116.64 1787.23 L3116.64 960.19 A827.04 827.04 0 0 0 2888.68 992.23 Z" style="fill:none;stroke:#00BF7F;stroke-width:6.00" clip-path="url(#clipPath_ynNGeSUv)"/>
	<text x="3431.36" y="2114.99" style="font-family:'Helvetica';font-size:105.13px;fill:#000000" text-anchor="middle">888 (70.25%)</text>
	<text x="2680.26" y="1697.34" style="font-family:'Helvetica';font-size:105.13px;fill:#000000" text-anchor="middle">319 (25.24%)</text>
	<text x="3057.08" y="1259.94" style="font-family:'Helvetica';font-size:105.13px;fill:#000000" text-anchor="middle">57 (4.509%)</text>
	<rect x="226.80" y="348.64" width="1775.42" height="138.21" style="fill:#F0F0F0;stroke:#F0F0F0;stroke-width:5.51"/>
	<text x="1114.43" y="454.66" style="font-family:'Helvetica';font-size:105.13px;fill:#000000" text-anchor="middle">Lecturers</text>
	<rect x="2229.02" y="348.64" width="1775.25" height="138.21" style="fill:#F0F0F0;stroke:#F0F0F0;stroke-width:5.51"/>
	<text x="3116.64" y="454.66" style="font-family:'Helvetica';font-size:105.13px;fill:#000000" text-anchor="middle">Professors</text>
	<rect x="4156.48" y="1374.47" width="1091.31" height="687.32" style="fill:#FFFFFF"/>
	<rect x="4159.72" y="1377.71" width="1084.83" height="680.84" style="fill:none;stroke:#FFFFFF;stroke-width:6.48"/>
	<rect x="4259.93" y="1585.74" width="259.20" height="112.56" style="fill:#3191FF"/>
	<rect x="4261.43" y="1587.24" width="256.20" height="109.56" style="fill:none;stroke:#3191FF;stroke-width:3.00"/>
	<rect x="4259.93" y="1743.19" width="259.20" height="112.56" style="fill:#D8296A"/>
	<rect x="4261.43" y="1744.69" width="256.20" height="109.56" style="fill:none;stroke:#D8296A;stroke-width:3.00"/>
	<rect x="4259.93" y="1900.80" width="259.20" height="112.39" style="fill:#19C58C"/>
	<rect x="4261.43" y="1902.30" width="256.20" height="109.39" style="fill:none;stroke:#19C58C;stroke-width:3.00"/>
	<text x="4586.63" y="1681.37" style="font-family:'Helvetica';font-size:112.56px;fill:#000000">0 to 100</text>
	<text x="4586.63" y="1838.99" style="font-family:'Helvetica';font-size:112.56px;fill:#000000">100 to 200</text>
	<text x="4586.63" y="1996.43" style="font-family:'Helvetica';font-size:112.56px;fill:#000000">200+</text>
	<text x="4702.22" y="1519.36" style="font-family:'Helvetica';font-size:123.69px;fill:#000000" text-anchor="middle">Pay in thousands</text>
	<text x="2115.62" y="243.10" style="font-family:'Helvetica';font-size:157.44px;fill:#000000" text-anchor="middle">Pay bucket by status</text>
</svg>
